<svg width="136" height="31" viewBox="0 0 136 31" fill="none" xmlns="http://www.w3.org/2000/svg">
<path d="M44.5046 3.95931C44.5046 4.91069 44.2128 5.67265 43.6381 6.24092C42.9773 6.91458 42.1166 7.25354 41.0619 7.25354C40.0539 7.25354 39.1933 6.90888 38.4873 6.22952C37.7798 5.5402 37.4268 4.69421 37.4268 3.68158C37.4268 2.66896 37.7798 1.82297 38.4873 1.13934C39.1933 0.454283 40.0539 0.109619 41.0619 0.109619C41.5637 0.109619 42.0422 0.210739 42.4988 0.398737C42.9539 0.58816 43.3244 0.84452 43.5928 1.1607L42.9831 1.76172C42.5148 1.22194 41.8774 0.955611 41.0619 0.955611C40.3267 0.955611 39.6893 1.20627 39.1481 1.71187C38.6127 2.2189 38.3443 2.87547 38.3443 3.68158C38.3443 4.48769 38.6127 5.14996 39.1481 5.65698C39.6893 6.15689 40.3267 6.41325 41.0619 6.41325C41.8424 6.41325 42.4988 6.15689 43.0166 5.65129C43.358 5.31659 43.552 4.85514 43.6031 4.26551H41.0619V3.44231H44.452C44.4929 3.62034 44.5046 3.79267 44.5046 3.95931Z" fill="#33354D"/>
<path d="M49.8829 1.10515H46.6985V3.26997H49.5693V4.09317H46.6985V6.258H49.8829V7.09687H45.797V0.266278H49.8829V1.10515Z" fill="#33354D"/>
<path d="M53.6785 7.09687H52.777V1.10515H50.8238V0.266278H55.6332V1.10515H53.6785V7.09687Z" fill="#33354D"/>
<path d="M59.1138 7.09687V0.266278H60.0138V7.09687H59.1138Z" fill="#33354D"/>
<path d="M64.0035 7.09687H63.1093V1.10515H61.1487V0.266278H65.964V1.10515H64.0035V7.09687Z" fill="#33354D"/>
<path d="M75.0695 6.21813C74.3795 6.90888 73.5247 7.25354 72.505 7.25354C71.4795 7.25354 70.6247 6.90888 69.9347 6.21813C69.2462 5.5288 68.9034 4.68281 68.9034 3.68158C68.9034 2.68035 69.2462 1.83436 69.9347 1.14503C70.6247 0.454283 71.4795 0.109619 72.505 0.109619C73.5189 0.109619 74.3737 0.454282 75.0637 1.15073C75.758 1.84575 76.1008 2.68605 76.1008 3.68158C76.1008 4.68281 75.758 5.5288 75.0695 6.21813ZM70.6014 5.64559C71.1207 6.15689 71.7523 6.41325 72.505 6.41325C73.2519 6.41325 73.8894 6.15689 74.4029 5.64559C74.9207 5.13429 75.1833 4.47773 75.1833 3.68158C75.1833 2.88544 74.9207 2.22887 74.4029 1.71757C73.8894 1.20628 73.2519 0.949913 72.505 0.949913C71.7523 0.949913 71.1207 1.20628 70.6014 1.71757C70.0835 2.22887 69.821 2.88544 69.821 3.68158C69.821 4.47773 70.0835 5.13429 70.6014 5.64559Z" fill="#33354D"/>
<path d="M77.3655 7.09687V0.266278H78.4596L81.8614 5.57865H81.9008L81.8614 4.26551V0.266278H82.7614V7.09687H81.822L78.2597 1.52245H78.2204L78.2597 2.84128V7.09687H77.3655Z" fill="#33354D"/>
<path d="M68.6396 17.2503C65.8969 17.2503 63.6563 19.2444 63.6563 21.9957C63.6563 24.7248 65.8969 26.7398 68.6396 26.7398C71.3881 26.7398 73.6287 24.7248 73.6287 21.9957C73.6287 19.2444 71.3881 17.2503 68.6396 17.2503ZM68.6396 24.8712C67.1347 24.8712 65.84 23.6845 65.84 21.9957C65.84 20.2847 67.1347 19.1189 68.6396 19.1189C70.1445 19.1189 71.4451 20.2847 71.4451 21.9957C71.4451 23.6845 70.1445 24.8712 68.6396 24.8712V24.8712ZM57.7666 17.2503C55.018 17.2503 52.7833 19.2444 52.7833 21.9957C52.7833 24.7248 55.018 26.7398 57.7666 26.7398C60.5137 26.7398 62.7499 24.7248 62.7499 21.9957C62.7499 19.2444 60.5137 17.2503 57.7666 17.2503ZM57.7666 24.8712C56.2602 24.8712 54.9611 23.6845 54.9611 21.9957C54.9611 20.2847 56.2602 19.1189 57.7666 19.1189C59.2715 19.1189 60.5662 20.2847 60.5662 21.9957C60.5662 23.6845 59.2715 24.8712 57.7666 24.8712ZM44.8282 18.7047V20.7212H49.8684C49.7209 21.8479 49.3268 22.6763 48.7225 23.2536C47.9869 23.9508 46.841 24.7248 44.8282 24.7248C41.7264 24.7248 39.2975 22.3332 39.2975 19.3699C39.2975 16.4066 41.7264 14.015 44.8282 14.015C46.5053 14.015 47.7256 14.6412 48.6262 15.4528L50.1136 14.0318C48.8539 12.8827 47.1782 12 44.8282 12C40.5747 12 37 15.3064 37 19.3699C37 23.4335 40.5747 26.7398 44.8282 26.7398C47.1271 26.7398 48.8539 26.0203 50.2114 24.6704C51.6024 23.3414 52.036 21.4728 52.036 19.964C52.036 19.4954 51.9951 19.0645 51.9221 18.7047H44.8282ZM97.735 20.268C97.3248 19.2068 96.0593 17.2503 93.4816 17.2503C90.9272 17.2503 88.8004 19.1733 88.8004 21.9957C88.8004 24.6537 90.9053 26.7398 93.7268 26.7398C96.0082 26.7398 97.3248 25.4109 97.8664 24.6369L96.1732 23.559C95.6083 24.3483 94.839 24.8712 93.7268 24.8712C92.6218 24.8712 91.8292 24.3873 91.3213 23.4335L97.9642 20.8076L97.735 20.268V20.268ZM90.9622 21.8479C90.9053 20.0183 92.4496 19.0812 93.556 19.0812C94.423 19.0812 95.1587 19.4954 95.4039 20.0881L90.9622 21.8479V21.8479ZM85.5629 26.4512H87.7466V12.5062H85.5629V26.4512ZM81.9867 18.3073H81.9137C81.4233 17.7523 80.4877 17.2503 79.3024 17.2503C76.8152 17.2503 74.541 19.3364 74.541 22.0111C74.541 24.6704 76.8152 26.7398 79.3024 26.7398C80.4877 26.7398 81.4233 26.2336 81.9137 25.6619H81.9867V26.3424C81.9867 28.1566 80.9723 29.1314 79.336 29.1314C78.0019 29.1314 77.1742 28.211 76.8327 27.4371L74.9337 28.1943C75.481 29.4521 76.9305 31 79.336 31C81.8962 31 84.0565 29.5609 84.0565 26.0593V17.5389H81.9867V18.3073V18.3073ZM79.4893 24.8712C77.9843 24.8712 76.7247 23.6677 76.7247 22.0111C76.7247 20.3391 77.9843 19.1189 79.4893 19.1189C80.9723 19.1189 82.1415 20.3391 82.1415 22.0111C82.1415 23.6677 80.9723 24.8712 79.4893 24.8712V24.8712ZM107.958 12.5062H102.736V26.4512H104.914V21.1674H107.958C110.377 21.1674 112.749 19.4954 112.749 16.8361C112.749 14.1782 110.371 12.5062 107.958 12.5062V12.5062ZM108.015 19.2277H104.914V14.4459H108.015C109.641 14.4459 110.57 15.7359 110.57 16.8361C110.57 17.9155 109.641 19.2277 108.015 19.2277ZM121.478 17.2238C119.904 17.2238 118.268 17.8876 117.595 19.3588L119.528 20.1327C119.944 19.3588 120.709 19.1077 121.517 19.1077C122.647 19.1077 123.793 19.7562 123.81 20.9011V21.0475C123.416 20.8299 122.573 20.5078 121.535 20.5078C119.453 20.5078 117.332 21.6025 117.332 23.6454C117.332 25.5141 119.037 26.7175 120.954 26.7175C122.419 26.7175 123.228 26.0858 123.736 25.3509H123.81V26.4288H125.914V21.0796C125.914 18.6071 123.981 17.2238 121.478 17.2238ZM121.215 24.8656C120.503 24.8656 119.51 24.5281 119.51 23.6845C119.51 22.6051 120.748 22.191 121.819 22.191C122.778 22.191 123.228 22.3932 123.81 22.6595C123.64 23.9508 122.476 24.8656 121.215 24.8656V24.8656ZM133.577 17.5292L131.074 23.5743H130.999L128.411 17.5292H126.063L129.951 25.977L127.732 30.6779H130.008L136 17.5292H133.577V17.5292ZM113.946 26.4512H116.13V12.5062H113.946V26.4512Z" fill="#33354D"/>
<path d="M0.541191 0.877589C0.198387 1.22795 0 1.77343 0 2.47984V27.6773C0 28.3837 0.198387 28.9292 0.541191 29.2795L0.625798 29.3564L15.0877 15.2424V14.9091L0.625798 0.794984L0.541191 0.877589Z" fill="url(#paint0_linear_8_617)"/>
<path d="M19.9022 19.9492L15.0869 15.2421V14.9089L19.908 10.2018L20.016 10.263L25.7255 13.4348C27.3549 14.3349 27.3549 15.8161 25.7255 16.7219L20.016 19.888L19.9022 19.9492Z" fill="url(#paint1_linear_8_617)"/>
<path d="M20.0157 19.888L15.0866 15.0756L0.540039 29.2794C1.08123 29.8348 1.96377 29.9018 2.96738 29.3463L20.0157 19.888Z" fill="url(#paint2_linear_8_617)"/>
<path d="M20.0157 10.2632L2.96738 0.804927C1.96377 0.255175 1.08123 0.322112 0.540039 0.877561L15.0866 15.0757L20.0157 10.2632Z" fill="url(#paint3_linear_8_617)"/>
<defs>
<linearGradient id="paint0_linear_8_617" x1="13.8037" y1="27.9397" x2="-5.3124" y2="8.3604" gradientUnits="userSpaceOnUse">
<stop stop-color="#00A0FF"/>
<stop offset="0.0066" stop-color="#00A1FF"/>
<stop offset="0.2601" stop-color="#00BEFF"/>
<stop offset="0.5122" stop-color="#00D2FF"/>
<stop offset="0.7604" stop-color="#00DFFF"/>
<stop offset="1" stop-color="#00E3FF"/>
</linearGradient>
<linearGradient id="paint1_linear_8_617" x1="27.8473" y1="15.0739" x2="-0.390296" y2="15.0739" gradientUnits="userSpaceOnUse">
<stop stop-color="#FFE000"/>
<stop offset="0.4087" stop-color="#FFBD00"/>
<stop offset="0.7754" stop-color="#FFA500"/>
<stop offset="1" stop-color="#FF9C00"/>
</linearGradient>
<linearGradient id="paint2_linear_8_617" x1="17.3354" y1="12.4594" x2="-8.5876" y2="-14.0917" gradientUnits="userSpaceOnUse">
<stop stop-color="#FF3A44"/>
<stop offset="1" stop-color="#C31162"/>
</linearGradient>
<linearGradient id="paint3_linear_8_617" x1="-3.12163" y1="37.6626" x2="8.45414" y2="25.8064" gradientUnits="userSpaceOnUse">
<stop stop-color="#32A071"/>
<stop offset="0.0685" stop-color="#2DA771"/>
<stop offset="0.4762" stop-color="#15CF74"/>
<stop offset="0.8009" stop-color="#06E775"/>
<stop offset="1" stop-color="#00F076"/>
</linearGradient>
</defs>
</svg>
